<svg xmlns="http://www.w3.org/2000/svg" width="209.337" height="220.711" viewBox="0 0 209.337 220.711">
  <g id="Group_8810" data-name="Group 8810" transform="translate(-1284.562 -590.328)">
    <path id="Path_39395" data-name="Path 39395" d="M40.4,110.093a56.171,56.171,0,1,1,69.69-38.108l-6.595-1.931a49.3,49.3,0,1,0-61.17,33.423Z" transform="translate(1284.562 724.086) rotate(-60)" fill="#d7cdc7"/>
    <path id="Path_39396" data-name="Path 39396" d="M107.808,71.982l-6.595-1.936A49.3,49.3,0,1,0,6.6,42.32L0,40.389A56.171,56.171,0,1,1,107.808,71.982Z" transform="translate(1341.771 685.668) rotate(-60)" fill="#fff"/>
    <path id="Path_39397" data-name="Path 39397" d="M56.282,112.382a56.191,56.191,0,1,1,53.842-40.407h0A56.246,56.246,0,0,1,56.282,112.382ZM56.157,6.864a49.471,49.471,0,1,0,13.923,2,49.472,49.472,0,0,0-13.923-2Z" transform="translate(1340.378 754.848) rotate(-60)" fill="#0c0c0c"/>
    <path id="Path_39398" data-name="Path 39398" d="M15.864,42.308A56.371,56.371,0,0,1,0,40.018l1.936-6.595A49.3,49.3,0,0,0,63.105,0L69.7,1.936A56.246,56.246,0,0,1,15.864,42.343Z" transform="translate(1365.438 724.143) rotate(-60)" fill="#d7cdc7"/>
    <path id="Path_39399" data-name="Path 39399" d="M56.144,71.975A56.176,56.176,0,0,1,2.268,0L8.863,1.931a49.3,49.3,0,1,0,94.623,27.756l6.595,1.931A56.271,56.271,0,0,1,56.144,71.975Z" transform="translate(1375.613 707.832) rotate(-60)" fill="#fff"/>
  </g>
</svg>
