<svg xmlns="http://www.w3.org/2000/svg" width="18.338" height="17.817" viewBox="0 0 18.338 17.817">
  <g id="Group_8513" data-name="Group 8513" transform="translate(-8.042 -9.293)">
    <g id="Group_113" data-name="Group 113">
      <path id="Path_232" data-name="Path 232" d="M24.71,9.3H9.16a.993.993,0,0,0-1.11,1.11V26a1,1,0,0,0,.86,1.11h15.8c.75,0,1.67-.41,1.67-1.11V10.41C26.33,9.71,25.46,9.3,24.71,9.3ZM13.6,24.3H10.83V16H13.6Zm-1.66-9.45a1.76,1.76,0,0,1-1.67-1.66,1.77,1.77,0,0,1,1.67-1.67,1.76,1.76,0,0,1,1.66,1.67,1.75,1.75,0,0,1-1.66,1.66ZM23.6,24.3H20.82V20.41c0-1-.26-2.22-1.66-2.22s-1.11,1.12-1.11,2.22V24.3H15.27V16h2.22v1.11h0a3.36,3.36,0,0,1,2.78-1.66c2.7,0,3.33,2.14,3.33,4.44Z" fill="#d64527"/>
    </g>
  </g>
</svg>
