<svg xmlns="http://www.w3.org/2000/svg" width="17.79" height="14.442" viewBox="0 0 17.79 14.442">
  <path id="Path_32" data-name="Path 32" d="M14,24.72c6.62,0,10.25-5.65,10.25-10.55v-.56A9,9,0,0,0,26.4,12a8.9,8.9,0,0,1-2.16.55,3.26,3.26,0,0,0,1.62-1.67,7.64,7.64,0,0,1-2.16.56A3.47,3.47,0,0,0,21,10.28a4,4,0,0,0-3.78,3.89c0,.3-.1.36,0,.56a10.3,10.3,0,0,1-7.55-3.89c-.29.5,0,1.52,0,2.22a3,3,0,0,0,1.07,2.77,3.08,3.08,0,0,1-1.61-.55h0a4.24,4.24,0,0,0,3.23,3.89,3.84,3.84,0,0,1-1.07,0c-.2,0-.35.1-.54,0A3.15,3.15,0,0,0,14,21.38a6.84,6.84,0,0,1-4.31,1.67,3.91,3.91,0,0,1-1.08,0A8.48,8.48,0,0,0,14,24.71" transform="translate(-8.61 -10.278)" fill="#d64527" fill-rule="evenodd"/>
</svg>
